# xmcd CD database file
#
# Track frame offsets:
#	150
#	24155
#	36740
#	66615
#	86875
#	105172
#	111610
#	132570
#
# Disc length: 2406 seconds
#
# Revision: 2
# Processed by: cddbd v1.5.2PL0 Copyright (c) Steve Scherf et al.
# Submitted via: CDex 1.51
#
DISCID=76096408
DTITLE=Electric Sun - Earthquake
DYEAR=1979
DGENRE=Hard Rock
TTITLE0=Electric Sun
TTITLE1=Lilac
TTITLE2=Burning Wheels Turning
TTITLE3=Japanese Dream
TTITLE4=Sundown
TTITLE5=Winterdays
TTITLE6=Still So Many Lives Away
TTITLE7=Earthquake
EXTD=YEAR: 1979
EXTT0=
EXTT1=
EXTT2=
EXTT3=
EXTT4=
EXTT5=
EXTT6=
EXTT7=
PLAYORDER=
